<svg xmlns="http://www.w3.org/2000/svg" viewBox="0 0 120 140" width="120" height="140">
  <defs>
    <style>
      .av{animation:tilt 3.5s ease-in-out infinite;}
      .b1{animation:bf 2s ease-in-out infinite;}
      .b2{animation:bf 2s .6s ease-in-out infinite;}
      .b3{animation:bf 2s 1.2s ease-in-out infinite;}
      @keyframes tilt{0%,100%{transform:rotate(0deg) translateY(0);}35%{transform:rotate(-2.5deg) translateY(-3px);}70%{transform:rotate(1deg) translateY(-1px);}}
      @keyframes bf{0%,100%{opacity:.9;transform:translateY(0);}50%{opacity:.25;transform:translateY(-7px);}}
    </style>
  </defs>
  <circle cx="102" cy="66" r="5"  fill="white" opacity="0.88" stroke="#9ca3af" stroke-width="1"   class="b1"/>
  <circle cx="110" cy="46" r="9"  fill="white" opacity="0.9"  stroke="#9ca3af" stroke-width="1.2" class="b2"/>
  <circle cx="114" cy="24" r="13" fill="white" opacity="0.92" stroke="#9ca3af" stroke-width="1.5" class="b3"/>
  <text x="108" y="28" font-size="10" fill="#7c3aed" text-anchor="middle" class="b3">AI</text>
  <g class="av">
    <path d="M10 140 L10 112 Q10 100 24 96 L44 90 L60 104 L76 90 L96 96 Q110 100 110 112 L110 140 Z" fill="#232b38"/>
    <path d="M44 90 L60 106 L76 90 L70 100 L60 108 L50 100 Z" fill="#93b5ce"/>
    <path d="M44 90 L36 104 L10 112 L10 140 L44 140 L44 114 L50 100 Z" fill="#2c3848"/>
    <path d="M76 90 L84 104 L110 112 L110 140 L76 140 L76 114 L70 100 Z" fill="#2c3848"/>
    <rect x="51" y="82" width="18" height="14" rx="7" fill="#b87548"/>
    <ellipse cx="60" cy="50" rx="34" ry="40" fill="#c07848"/>
    <ellipse cx="26" cy="50" rx="6" ry="9" fill="#a86030"/>
    <ellipse cx="94" cy="50" rx="6" ry="9" fill="#a86030"/>
    <ellipse cx="26" cy="50" rx="2.8" ry="4.5" fill="#8a4818" opacity="0.45"/>
    <ellipse cx="94" cy="50" rx="2.8" ry="4.5" fill="#8a4818" opacity="0.45"/>
    <path d="M26 40 Q26 8 60 7 Q94 8 94 40 Q94 24 84 16 Q73 9 60 9 Q47 9 36 16 Q26 24 26 40 Z" fill="#141018"/>
    <path d="M28 26 Q34 19 41 23 Q47 16 54 20 Q58 14 64 18 Q70 12 77 16 Q83 20 88 26" fill="none" stroke="#0a0810" stroke-width="5.5" stroke-linecap="round"/>
    <path d="M31 20 Q38 14 45 18 Q50 12 57 15 Q62 10 68 13 Q74 10 80 14 Q86 18 90 23" fill="none" stroke="#141018" stroke-width="4" stroke-linecap="round"/>
    <path d="M26 40 Q23 28 27 18 Q29 14 32 20 Q30 30 30 40 Z" fill="#141018"/>
    <path d="M94 40 Q97 28 93 18 Q91 14 88 20 Q90 30 90 40 Z" fill="#141018"/>
    <rect x="27" y="44" width="26" height="16" rx="4" fill="none" stroke="#2a2010" stroke-width="2.4"/>
    <rect x="67" y="44" width="26" height="16" rx="4" fill="none" stroke="#2a2010" stroke-width="2.4"/>
    <path d="M53 52 Q60 49 67 52" stroke="#2a2010" stroke-width="2.2" fill="none" stroke-linecap="round"/>
    <line x1="27" y1="52" x2="20" y2="50" stroke="#2a2010" stroke-width="2.2"/>
    <line x1="93" y1="52" x2="100" y2="50" stroke="#2a2010" stroke-width="2.2"/>
    <!-- Left eye open, right slightly narrowed -->
    <ellipse cx="40" cy="52" rx="8" ry="7" fill="white"/>
    <circle  cx="40" cy="52" r="5.2" fill="#2e1206"/>
    <circle  cx="40" cy="52" r="2.9" fill="#080300"/>
    <circle  cx="42.5" cy="49.5" r="1.9" fill="white"/>
    <path    d="M32 47 Q40 43 48 47" stroke="#180804" stroke-width="2" fill="none" stroke-linecap="round"/>
    <path d="M72 51 Q80 45 88 51 Q88 58 80 58 Q72 58 72 51 Z" fill="white"/>
    <ellipse cx="80" cy="53.5" rx="5" ry="4" fill="#2e1206"/>
    <ellipse cx="80" cy="53.5" rx="2.8" ry="2.2" fill="#080300"/>
    <circle  cx="82" cy="51.5" r="1.3" fill="white"/>
    <!-- Brows: left flat, right raised-arch -->
    <path d="M29 41 Q40 36 51 41" stroke="#0c0810" stroke-width="3.5" fill="none" stroke-linecap="round"/>
    <path d="M69 39 Q80 34 91 39" stroke="#0c0810" stroke-width="4"   fill="none" stroke-linecap="round"/>
    <!-- Nose -->
    <path d="M57 60 Q54 70 57 74 Q60 77 63 74 Q66 70 63 60" stroke="#7a3810" stroke-width="1.8" fill="none" stroke-linecap="round"/>
    <ellipse cx="57" cy="74" rx="3" ry="1.8" fill="#7a3810" opacity="0.4"/>
    <ellipse cx="63" cy="74" rx="3" ry="1.8" fill="#7a3810" opacity="0.4"/>
    <!-- Jaw beard -->
    <path d="M28 68 Q32 80 40 85 Q50 90 60 90 Q70 90 80 85 Q88 80 92 68" fill="#1a1428" opacity="0.18"/>
    <path d="M28 68 Q30 78 36 84 Q43 90 50 91" stroke="#1a1428" stroke-width="5" fill="none" stroke-linecap="round" opacity="0.7"/>
    <path d="M92 68 Q90 78 84 84 Q77 90 70 91" stroke="#1a1428" stroke-width="5" fill="none" stroke-linecap="round" opacity="0.7"/>
    <path d="M50 91 Q60 94 70 91" stroke="#1a1428" stroke-width="4.5" fill="none" stroke-linecap="round" opacity="0.75"/>
    <path d="M47 72 Q54 77 60 75" stroke="#0e0c18" stroke-width="3" fill="none" stroke-linecap="round"/>
    <path d="M60 75 Q66 77 73 72" stroke="#0e0c18" stroke-width="3" fill="none" stroke-linecap="round"/>
    <path d="M49 81 Q60 87 71 81" stroke="#7a3010" stroke-width="2.2" fill="none" stroke-linecap="round"/>
  </g>
</svg>
